<svg width="72" height="16" viewBox="0 0 72 16" fill="none" xmlns="http://www.w3.org/2000/svg">
<path d="M1.08186 8.98041C1.15551 8.99236 1.23004 8.99788 1.30462 8.99691L67.7501 8.99789L67.4732 9.12668C67.2025 9.25479 66.9563 9.42914 66.7455 9.64184L63.1844 13.2029C62.7154 13.6506 62.6366 14.3708 62.9977 14.9094C63.4179 15.4833 64.2238 15.6079 64.7977 15.1877C64.8441 15.1537 64.8881 15.1167 64.9296 15.0768L71.3691 8.63728C71.8723 8.13459 71.8728 7.31914 71.3701 6.81589L71.3691 6.81489L64.9296 0.375341C64.4259 -0.126903 63.6105 -0.125777 63.1082 0.377875C63.0686 0.417519 63.0317 0.459698 62.9977 0.50413C62.6366 1.04268 62.7154 1.7629 63.1844 2.21061L66.7391 5.77812C66.928 5.96728 67.1453 6.12589 67.383 6.2482L67.7694 6.42207L1.3755 6.4211C0.717575 6.39666 0.140351 6.85625 0.0167544 7.50294C-0.0971067 8.20505 0.379746 8.86651 1.08186 8.98041Z" fill="#D6A672"/>
</svg>
