<svg width="34" height="16" viewBox="0 0 34 16" fill="none" xmlns="http://www.w3.org/2000/svg">
<path d="M32.4349 6.45513C32.3612 6.44318 32.2867 6.43767 32.2121 6.43863H3.99675L4.27365 6.30984C4.54431 6.18174 4.79055 6.00738 5.00132 5.79468L8.56239 2.23361C9.03139 1.7859 9.11019 1.06568 8.74914 0.527132C8.32892 -0.046752 7.52305 -0.171357 6.94912 0.248863C6.90276 0.282832 6.85869 0.319859 6.81727 0.359704L0.37773 6.79925C-0.125521 7.30193 -0.125963 8.11738 0.376724 8.62063L0.37773 8.62164L6.81727 15.0612C7.32093 15.5634 8.13637 15.5623 8.63866 15.0586C8.67818 15.019 8.71509 14.9768 8.74914 14.9324C9.11019 14.3938 9.03139 13.6736 8.56239 13.2259L5.00776 9.65841C4.8188 9.46924 4.60155 9.31063 4.36381 9.18832L3.97743 9.01445H32.1413C32.7992 9.03888 33.3764 8.5793 33.5 7.93261C33.6139 7.2305 33.137 6.56903 32.4349 6.45513Z" fill="#3B3B44"/>
</svg>
