<svg width="54" height="54" viewBox="0 0 54 54" fill="none" xmlns="http://www.w3.org/2000/svg">
<path d="M53.119 21.8008V51.366C53.1245 52.1035 52.8126 52.8079 52.2629 53.2995L52.1853 53.3772C51.7112 53.7814 51.108 54.0024 50.4849 54.0002H3.51576C2.89715 54 2.29888 53.7791 1.82855 53.3772C1.79648 53.3583 1.76977 53.3316 1.75089 53.2995C1.19709 52.8095 0.880299 52.1054 0.880969 51.366V21.8008C0.874824 21.1435 1.12636 20.51 1.58171 20.0359C1.76732 19.8168 1.99036 19.6322 2.24021 19.4906C2.63009 19.2773 3.06745 19.1657 3.51185 19.166H50.4843C51.2216 19.1793 51.9228 19.4877 52.431 20.0221C52.8726 20.5094 53.1179 21.1432 53.119 21.8008Z" fill="#F6B863"/>
<path d="M52.4335 20.0192C52.2485 20.2478 27.0138 40.3162 27.0138 40.3162L1.58032 20.0416L1.5915 20.0311V20.0199L25.5737 0.510555C26.4107 -0.170185 27.6106 -0.170185 28.4476 0.510555L52.4335 20.0192Z" fill="#EAA14E"/>
<path d="M47.0684 6.41504V24.3392L27.0113 40.3155L6.94287 24.3175V6.41504H47.0684Z" fill="#EEEFEE"/>
<path d="M52.2598 53.298C52.2372 53.3262 52.2115 53.3518 52.1833 53.3745L29.5901 38.3031L31.6579 36.6377L52.2598 53.298Z" fill="#EAA14E"/>
<path d="M24.4204 38.2914L1.82716 53.3719C1.79398 53.3556 1.76705 53.3288 1.75073 53.2955L22.342 36.6152L24.4204 38.2914Z" fill="#EAA14E"/>
<path d="M11.3879 11.1201H42.6113V12.4748H11.3879V11.1201Z" fill="#DBD8DD"/>
<path d="M11.3879 16.3447H42.6113V17.6994H11.3879V16.3447Z" fill="#DBD8DD"/>
<path d="M11.3879 21.5703H42.6113V22.925H11.3879V21.5703Z" fill="#DBD8DD"/>
<path d="M16.6318 26.7959H37.368V28.1506H16.6318V26.7959Z" fill="#DBD8DD"/>
</svg>
