<svg width="65" height="53" viewBox="0 0 65 53" fill="none" xmlns="http://www.w3.org/2000/svg">
<path d="M44.6431 50.3082H58.9582V39.8799H44.6431V50.3082ZM45.6563 40.891H57.945V49.297H45.6563V40.891ZM57.1323 28.2959H46.4718V36.4547H57.1323V28.2959ZM56.1191 35.4408H47.485V29.3071H56.1191V35.4408ZM46.4718 24.868H57.1323V16.7092H46.4718V24.868ZM47.485 17.7204H56.1191V23.8568H47.485V17.7204ZM50.0652 11.3312H53.5361V7.86708H50.0652V11.3312ZM51.0784 8.87824H52.5229V10.32H51.0784V8.87824ZM5.9398 50.3082H20.2549V39.8799H5.9398V50.3082ZM6.95296 40.891H19.2417V49.297H6.95296V40.891ZM18.4262 28.2959H7.76571V36.4547H18.4262V28.2959ZM17.413 35.4408H8.77888V29.3071H17.413V35.4408ZM7.76571 24.868H18.4262V16.7092H7.76571V24.868ZM8.77888 17.7204H17.413V23.8568H8.77888V17.7204ZM11.3619 11.3312H14.8328V7.86708H11.3619V11.3312ZM12.375 8.87824H13.8196V10.32H12.375V8.87824ZM33.8296 11.9729H31.0712V14.7258H33.8296V11.9729ZM32.8164 13.7146H32.0844V12.984H32.8164V13.7146ZM35.8921 24.5707V17.7009H29.0087V24.5707H29.5236L26.8154 26.9653V28.2015H28.1319V35.6658H27.4249V37.3686L31.7364 39.9049H33.1699L37.4814 37.3686V35.6658H36.7744V28.2015H38.091V26.9653L35.3827 24.5707H35.8921ZM30.0219 18.7121H34.8789V23.5596H30.0219V18.7121ZM36.4627 36.788L32.8888 38.8909H32.0092L28.4353 36.788V36.6742H36.4627V36.788ZM29.1423 35.6658V28.2015H35.7557V35.6658H29.1423ZM36.8106 27.1903H28.0874L31.0489 24.5707H33.8463L36.8106 27.1903ZM61.7165 8.27821H57.7808L52.3086 1.86399V0.505582C52.3086 0.225012 52.0832 0 51.802 0C51.5209 0 51.2955 0.225012 51.2955 0.505582V1.86399L45.8233 8.27821H33.4649L32.9584 7.5504V5.15305C32.9584 4.87248 32.7329 4.64747 32.4518 4.64747C32.1707 4.64747 31.9452 4.87248 31.9452 5.15305V7.5504L31.4386 8.27821H19.0803L13.6025 1.86399V0.505582C13.6025 0.225012 13.3771 0 13.0959 0C12.8148 0 12.5894 0.225012 12.5894 0.505582V1.86399L7.11718 8.27821H3.18144L0 13.7146V52.9972H64.898V13.7146L61.7165 8.27821ZM1.92334 51.9861H1.01316V16.7787H1.92334V51.9861ZM1.92334 15.7675H1.01316V13.9896L3.76317 9.29216H6.25711L1.92334 14.3674V15.7675ZM23.2554 51.9861H2.9365V14.7397L13.0959 2.8307L23.2554 14.7397V51.9861ZM24.9199 51.9861H24.2713V12.109C24.2713 11.8173 24.4996 11.784 24.597 11.784C24.6944 11.784 24.9227 11.8145 24.9227 12.109V51.9861H24.9199ZM24.5942 10.7728C23.8316 10.7728 23.2554 11.3478 23.2554 12.109V13.1812L19.9376 9.29216H30.7316L26.5676 15.273H25.9302V12.1062C25.933 11.3478 25.3569 10.7728 24.5942 10.7728ZM35.867 51.9861H29.031V51.2471H35.8698V51.9861H35.867ZM29.9578 50.236V43.1495L32.449 42.1606L34.9401 43.1495V50.236H29.9578ZM38.9677 51.9861H36.883V50.236H35.9561V42.4633L32.449 41.0716L28.9447 42.4633V50.236H28.0178V51.9861H25.933V16.287H27.0993L32.449 8.59767L37.7987 16.287H38.9677V51.9861ZM40.6294 51.9861H39.9809V12.109C39.9809 11.8173 40.2091 11.784 40.3066 11.784C40.404 11.784 40.6322 11.8145 40.6322 12.109V51.9861H40.6294ZM40.3038 10.7728C39.5411 10.7728 38.965 11.3478 38.965 12.109V15.2758H38.3276L34.1636 9.29216H44.9576L41.6398 13.1812V12.109C41.6426 11.3478 41.0664 10.7728 40.3038 10.7728ZM61.9615 51.9861H41.6426V14.7397L51.802 2.8307L61.9615 14.7397V51.9861ZM63.8848 51.9861H62.9747V16.7787H63.8848V51.9861ZM63.8848 15.7675H62.9747V14.3674L58.6437 9.28938H61.1376L63.8876 13.9868V15.7675H63.8848Z" fill="#C59B6D"/>
</svg>
