<svg width="64" height="64" viewBox="0 0 64 64" fill="none" xmlns="http://www.w3.org/2000/svg">
<g clip-path="url(#clip0)">
<path d="M31.3152 50.1042H35.1395C35.1395 50.1042 36.2956 49.9762 36.8836 49.3402C37.4277 48.7561 37.4077 47.6601 37.4077 47.6601C37.4077 47.6601 37.3317 42.5277 39.7158 41.7716C42.064 41.0276 45.0802 46.732 48.2765 48.9282C50.6927 50.5883 52.5288 50.2243 52.5288 50.2243L61.0774 50.1042C61.0774 50.1042 65.5498 49.8282 63.4296 46.312C63.2576 46.0239 62.1935 43.7118 57.0731 38.9594C51.7127 33.9831 52.4328 34.7911 58.8893 26.1865C62.8216 20.9461 64.3937 17.7458 63.9016 16.3777C63.4336 15.0736 60.5414 15.4177 60.5414 15.4177L50.9247 15.4737C50.9247 15.4737 50.2126 15.3777 49.6806 15.6937C49.1645 16.0057 48.8325 16.7258 48.8325 16.7258C48.8325 16.7258 47.3084 20.7821 45.2763 24.2303C40.9919 31.5069 39.2758 31.8909 38.5758 31.4389C36.9476 30.3868 37.3557 27.2065 37.3557 24.9504C37.3557 17.8979 38.4237 14.9576 35.2715 14.1976C34.2234 13.9456 33.4554 13.7776 30.7792 13.7496C27.3469 13.7135 24.4387 13.7616 22.7946 14.5656C21.6985 15.1017 20.8544 16.2977 21.3705 16.3657C22.0065 16.4498 23.4466 16.7538 24.2107 17.7939C25.1988 19.134 25.1628 22.1502 25.1628 22.1502C25.1628 22.1502 25.7308 30.4508 23.8387 31.4829C22.5386 32.1909 20.7584 30.7468 16.9381 24.1423C14.982 20.7621 13.5019 17.0218 13.5019 17.0218C13.5019 17.0218 13.2179 16.3257 12.7098 15.9537C12.0938 15.5017 11.2297 15.3577 11.2297 15.3577L2.08505 15.4137C2.08505 15.4137 0.712946 15.4537 0.208909 16.0497C-0.239125 16.5818 0.172906 17.6778 0.172906 17.6778C0.172906 17.6778 7.33344 34.4271 15.438 42.8717C22.8746 50.6123 31.3152 50.1042 31.3152 50.1042Z" fill="#1E88E5"/>
</g>
<defs>
<clipPath id="clip0">
<rect width="64" height="64" fill="white"/>
</clipPath>
</defs>
</svg>
