<svg width="53" height="54" viewBox="0 0 53 54" fill="none" xmlns="http://www.w3.org/2000/svg">
<g clip-path="url(#clip0)">
<path d="M26.4858 0.0146614C11.8589 0.0178236 0.00395188 12.1016 0.00705551 27.0045C0.00809005 32.1649 1.46152 37.2167 4.19479 41.5611L0.0743009 52.4537C-0.145126 53.033 0.137925 53.6839 0.706511 53.9075C0.833656 53.9574 0.968664 53.983 1.10491 53.9828C1.23134 53.9835 1.35683 53.9614 1.47569 53.9176L12.5109 49.9037C24.9266 57.7823 41.2602 53.9142 48.9928 41.2641C56.7254 28.6139 52.9291 11.9723 40.5132 4.09378C36.3045 1.423 31.4443 0.00970732 26.4858 0.0146614Z" fill="#4CAF50"/>
<path d="M39.1122 31.6108C39.1122 31.6108 36.4086 30.2616 34.7158 29.3622C32.8002 28.357 30.549 30.2392 29.4896 31.3096C27.8409 30.6643 26.335 29.6903 25.0601 28.4447C23.8374 27.146 22.8815 25.6117 22.2483 23.9316C23.2989 22.8501 25.1417 20.5586 24.1596 18.6068C23.2878 16.8798 21.9527 14.1275 21.9527 14.1253C21.7653 13.7464 21.3847 13.5073 20.9683 13.5068H18.7613C15.5472 14.0724 13.2102 16.9298 13.2438 20.2528C13.2438 23.7832 17.3907 30.5653 20.1871 33.4165C22.9835 36.2678 29.6398 40.4909 33.107 40.4909C36.3685 40.525 39.1729 38.1439 39.7281 34.8692V32.6206C39.7284 32.1918 39.4896 31.8002 39.1122 31.6108Z" fill="#FAFAFA"/>
</g>
<defs>
<clipPath id="clip0">
<rect width="53" height="54" fill="white"/>
</clipPath>
</defs>
</svg>
