<svg width="371" height="418" viewBox="0 0 371 418" fill="none" xmlns="http://www.w3.org/2000/svg">
<g opacity="0.5">
<path d="M136.016 73.8665C165.176 71.2753 188.878 68.5797 208.797 65.3295C269.292 55.4565 293.739 38.6582 321.596 4.41224C326.245 -1.21467 334.81 -1.46017 339.703 3.679L413.957 78.7063C418.124 82.8733 418.827 89.4847 415.456 94.3188C406.117 107.717 395.767 120.072 384.534 131.198C362.309 156.131 339.186 173.896 317.409 185.94C303.669 193.538 288.168 197.378 272.466 197.378H199.826C177.62 197.378 158.87 182.588 152.885 162.323C150.956 155.789 155.387 148.894 162.186 148.466C162.45 148.45 162.718 148.441 162.988 148.441H269.686C276.341 148.441 282.002 143.244 282.197 136.593C282.403 129.56 276.948 123.973 269.968 123.973H147.626C143.955 123.973 140.531 125.686 138.084 128.377C134.952 131.618 120.04 153.744 91.6142 177.666C73.1944 193.168 28.9613 221.846 12.2355 221.846C1.71415 221.846 -3.91276 209.367 3.18225 201.538L114.105 79.1965C116.064 76.7489 119.245 75.2808 122.424 75.0361C127.083 74.647 131.612 74.258 136.016 73.8665Z" fill="#F3F4F6"/>
<path d="M281.577 344.134C252.418 346.725 228.715 349.42 208.796 352.671C148.301 362.544 123.854 379.342 95.9971 413.588C91.3481 419.215 82.7833 419.46 77.8905 414.321L3.63633 339.294C-0.530629 335.127 -1.23369 328.515 2.13724 323.681C11.4768 310.283 21.8269 297.928 33.0595 286.803C55.2842 261.869 78.4076 244.104 100.184 232.06C113.924 224.462 129.426 220.622 145.127 220.622H217.769C239.974 220.622 258.725 235.412 264.709 255.677C266.638 262.211 262.207 269.106 255.408 269.534C255.144 269.55 254.877 269.559 254.607 269.559H147.908C141.254 269.559 135.593 274.756 135.398 281.407C135.191 288.44 140.646 294.027 147.626 294.027H269.968C273.639 294.027 277.063 292.314 279.511 289.623C282.643 286.383 297.554 264.256 325.98 240.334C344.4 224.832 388.633 196.154 405.359 196.154C415.88 196.154 421.507 208.633 414.412 216.462L303.489 338.804C301.53 341.251 298.35 342.719 295.17 342.964C290.511 343.353 285.982 343.742 281.577 344.134Z" fill="#F3F4F6"/>
</g>
</svg>
