<svg viewBox="0 0 140 53" fill="none" xmlns="http://www.w3.org/2000/svg">
<path d="M93.0353 8.26987V10.2533L81.6177 35.4963H78.5782L89.801 10.7589H75.7726V15.8536H73.0059V8.26987H93.0353Z" fill="#C59B6D"/>
<path d="M115.801 8.26987V10.2533L104.384 35.4963H101.344L112.567 10.7589H98.5384V15.8536H95.7717V8.26987H115.801Z" fill="#C59B6D"/>
<path d="M122.523 34.0546C120.872 32.9406 119.586 31.3378 118.665 29.2515C117.744 27.1653 117.282 24.7069 117.282 21.8817C117.282 19.0566 117.744 16.5981 118.665 14.5119C119.586 12.4257 120.872 10.8228 122.523 9.70884C124.173 8.59489 126.049 8.03653 128.154 8.03653C130.258 8.03653 132.134 8.59489 133.785 9.70884C135.435 10.8228 136.727 12.4257 137.662 14.5119C138.597 16.5981 139.065 19.0566 139.065 21.8817C139.065 24.7069 138.597 27.1653 137.662 29.2515C136.727 31.3378 135.435 32.9406 133.785 34.0546C132.134 35.1685 130.258 35.7269 128.154 35.7269C126.049 35.7269 124.173 35.1713 122.523 34.0546ZM132.343 31.8378C133.551 30.9572 134.492 29.6738 135.168 27.9876C135.844 26.3014 136.181 24.2679 136.181 21.8817C136.181 19.4955 135.844 17.462 135.168 15.7758C134.492 14.0896 133.551 12.8062 132.343 11.9256C131.135 11.045 129.738 10.6033 128.154 10.6033C126.57 10.6033 125.173 11.045 123.965 11.9256C122.757 12.8062 121.813 14.0896 121.14 15.7758C120.463 17.462 120.126 19.4955 120.126 21.8817C120.126 24.2679 120.463 26.3014 121.14 27.9876C121.816 29.6738 122.757 30.9572 123.965 31.8378C125.173 32.7184 126.57 33.1601 128.154 33.1601C129.738 33.1601 131.135 32.7212 132.343 31.8378Z" fill="#C59B6D"/>
<path d="M76.3572 40.2271H73.7797V41.63H75.1436C76.115 41.63 76.6828 42.305 76.6828 43.1078C76.6828 43.9079 76.1317 44.5857 75.1436 44.5857H73.1702V39.6826H76.36V40.2271H76.3572ZM73.7769 44.0412H75.0657C75.6474 44.0412 76.0454 43.6579 76.0454 43.1078C76.0454 42.5578 75.6474 42.1744 75.0657 42.1744H73.7769V44.0412Z" fill="#C59B6D"/>
<path d="M77.7182 42.7856L77.9465 41.0355H80.4209V44.5857H79.867V41.5189H78.4308L78.2693 42.8495C78.1079 44.1718 77.7238 44.6718 77.0391 44.6718V44.2162C77.3703 44.219 77.579 43.8357 77.7182 42.7856Z" fill="#C59B6D"/>
<path d="M83.7277 44.1829C83.4327 44.5051 83.0291 44.6746 82.5503 44.6746C81.9463 44.6746 81.3062 44.269 81.3062 43.4995C81.3062 42.7051 81.9463 42.33 82.5503 42.33C83.0374 42.33 83.441 42.4856 83.7277 42.8162V42.1772C83.7277 41.6994 83.3436 41.4272 82.8287 41.4272C82.4028 41.4272 82.0549 41.5828 81.7376 41.9189L81.4787 41.5355C81.8628 41.1383 82.3193 40.9466 82.901 40.9466C83.6526 40.9466 84.2788 41.2855 84.2788 42.1439V44.5857H83.7277V44.1829ZM83.7277 43.1662C83.5134 42.8717 83.1376 42.7245 82.748 42.7245C82.233 42.7245 81.8712 43.0467 81.8712 43.5023C81.8712 43.9496 82.233 44.2746 82.748 44.2746C83.1376 44.2746 83.5134 44.1273 83.7277 43.8329V43.1662Z" fill="#C59B6D"/>
<path d="M85.9155 41.5216V44.5885H85.3616V41.0383H87.8499V41.5244H85.9155V41.5216Z" fill="#C59B6D"/>
<path d="M88.2759 42.8078C88.2759 41.7772 88.955 40.9466 90.0378 40.9466C91.1205 40.9466 91.7969 41.7772 91.7969 42.8078C91.7969 43.8357 91.1205 44.6746 90.0378 44.6746C88.9523 44.6746 88.2759 43.8357 88.2759 42.8078ZM91.2152 42.8078C91.2152 42.0884 90.7949 41.4411 90.0378 41.4411C89.2779 41.4411 88.852 42.0884 88.852 42.8078C88.852 43.5357 89.2807 44.1829 90.0378 44.1829C90.7949 44.1829 91.2152 43.5357 91.2152 42.8078Z" fill="#C59B6D"/>
<path d="M93.2552 41.5217H92.2253V41.0355H94.8473V41.5217H93.8091V44.5885H93.2552V41.5217Z" fill="#C59B6D"/>
<path d="M95.5432 41.0355H97.5027C98.129 41.0355 98.5048 41.4105 98.5048 41.9467C98.5048 42.3745 98.232 42.6606 97.9314 42.7551C98.2932 42.8439 98.5799 43.219 98.5799 43.6218C98.5799 44.194 98.1958 44.5857 97.5417 44.5857H95.546V41.0355H95.5432ZM97.4081 41.5217H96.0971V42.5217H97.4081C97.7532 42.5217 97.9397 42.3078 97.9397 42.03C97.9369 41.7189 97.7449 41.5217 97.4081 41.5217ZM97.4304 43.0051H96.0971V44.0996H97.4304C97.7839 44.0996 98.0037 43.894 98.0037 43.5551C98.0037 43.2717 97.8061 43.0051 97.4304 43.0051Z" fill="#C59B6D"/>
<path d="M99.3369 42.8078C99.3369 41.7772 100.013 40.9466 101.099 40.9466C102.182 40.9466 102.861 41.7772 102.861 42.8078C102.861 43.8357 102.182 44.6746 101.099 44.6746C100.016 44.6746 99.3369 43.8357 99.3369 42.8078ZM102.276 42.8078C102.276 42.0884 101.856 41.4411 101.099 41.4411C100.339 41.4411 99.9131 42.0884 99.9131 42.8078C99.9131 43.5357 100.339 44.1829 101.099 44.1829C101.856 44.1829 102.276 43.5357 102.276 42.8078Z" fill="#C59B6D"/>
<path d="M103.738 45.9386V41.0355H104.292V41.5661C104.551 41.205 104.99 40.9494 105.491 40.9494C106.427 40.9494 107.075 41.655 107.075 42.8106C107.075 43.9579 106.427 44.6774 105.491 44.6774C105.004 44.6774 104.578 44.4496 104.292 44.0523V45.9413H103.738V45.9386ZM105.352 41.4411C104.918 41.4411 104.484 41.6994 104.292 42.0078V43.6107C104.484 43.919 104.918 44.1829 105.352 44.1829C106.067 44.1829 106.493 43.594 106.493 42.8078C106.493 42.0217 106.065 41.4411 105.352 41.4411Z" fill="#C59B6D"/>
<path d="M107.966 41.0355H108.517V43.7496L110.382 41.0355H110.927V44.5857H110.373V41.8217L108.495 44.5857H107.966V41.0355Z" fill="#C59B6D"/>
<path d="M112.661 41.5217H111.631V41.0355H114.253V41.5217H113.215V44.5885H112.661V41.5217Z" fill="#C59B6D"/>
<path d="M116.422 40.9466C117.496 40.9466 118.131 41.7856 118.131 42.8495V42.9884H115.25C115.294 43.6579 115.765 44.2162 116.533 44.2162C116.939 44.2162 117.351 44.0551 117.63 43.769L117.894 44.1301C117.54 44.4829 117.062 44.6746 116.48 44.6746C115.428 44.6746 114.668 43.9162 114.668 42.8078C114.668 41.7772 115.406 40.9466 116.422 40.9466ZM115.25 42.5856H117.585C117.577 42.055 117.223 41.4022 116.413 41.4022C115.653 41.4022 115.278 42.0439 115.25 42.5856Z" fill="#C59B6D"/>
<path d="M119.266 42.7856L119.495 41.0355H121.969V44.5857H121.415V41.5189H119.979L119.817 42.8495C119.656 44.1718 119.272 44.6718 118.587 44.6718V44.2162C118.921 44.219 119.127 43.8357 119.266 42.7856Z" fill="#C59B6D"/>
<path d="M123.611 42.4106H124.945C125.682 42.4106 126.063 42.9189 126.063 43.4995C126.063 44.0884 125.674 44.5885 124.945 44.5885H123.057V41.0383H123.611V42.4106ZM123.611 44.1023H124.886C125.284 44.1023 125.498 43.8523 125.498 43.4995C125.498 43.155 125.292 42.8967 124.886 42.8967H123.611V44.1023Z" fill="#C59B6D"/>
<path d="M126.823 41.0355H127.377V42.5134H129.234V41.0355H129.785V44.5857H129.234V42.9967H127.377V44.5857H126.823V41.0355Z" fill="#C59B6D"/>
<path d="M131.424 42.4106H132.758C133.495 42.4106 133.876 42.919 133.876 43.4995C133.876 44.0885 133.487 44.5885 132.758 44.5885H130.87V41.0383H131.421V42.4106H131.424ZM131.424 44.1023H132.699C133.097 44.1023 133.311 43.8523 133.311 43.4995C133.311 43.1551 133.105 42.8967 132.699 42.8967H131.424V44.1023ZM134.461 41.0355H135.012V44.5857H134.461V41.0355Z" fill="#C59B6D"/>
<path d="M136.106 41.0355H136.657V43.7495L138.522 41.0355H139.067V44.5857H138.513V41.8217L136.635 44.5857H136.106V41.0355ZM136.289 39.9855L136.562 39.7493C136.799 40.0716 137.152 40.2799 137.586 40.2799C138.012 40.2799 138.374 40.0827 138.602 39.7493L138.875 39.9855C138.58 40.3827 138.115 40.6327 137.586 40.6327C137.06 40.6299 136.59 40.3799 136.289 39.9855Z" fill="#C59B6D"/>
<path d="M75.2576 46.7414H75.8087V48.6248C76.0147 48.2637 76.3682 48.0081 76.7746 48.0081C77.5261 48.0081 78.055 48.7137 78.055 49.8693C78.055 51.0166 77.5261 51.7361 76.7746 51.7361C76.3849 51.7361 76.037 51.5083 75.8087 51.111V53H75.2576V51.1166C75.0517 51.4777 74.6898 51.7333 74.2862 51.7333C73.5347 51.7333 73.0059 51.0277 73.0059 49.8721C73.0059 48.7248 73.5375 48.0053 74.2862 48.0053C74.6759 48.0053 75.0238 48.2331 75.2576 48.6304V46.7414ZM74.4421 51.2416C74.7817 51.2416 75.1129 50.9833 75.2604 50.6749V49.072C75.1129 48.7637 74.7817 48.4998 74.4421 48.4998C73.8882 48.4998 73.5653 49.0887 73.5653 49.8749C73.5653 50.661 73.8882 51.2416 74.4421 51.2416ZM76.6215 48.4998C76.2903 48.4998 75.9591 48.7581 75.8115 49.0665V50.6693C75.9591 50.9777 76.2903 51.2416 76.6215 51.2416C77.1754 51.2416 77.4983 50.6527 77.4983 49.8665C77.4983 49.0804 77.1754 48.4998 76.6215 48.4998Z" fill="#C59B6D"/>
<path d="M78.7871 49.8665C78.7871 48.8359 79.4663 48.0053 80.549 48.0053C81.6318 48.0053 82.3081 48.8359 82.3081 49.8665C82.3081 50.8944 81.6318 51.7333 80.549 51.7333C79.4635 51.7333 78.7871 50.8971 78.7871 49.8665ZM81.7236 49.8665C81.7236 49.147 81.3033 48.4998 80.5462 48.4998C79.7864 48.4998 79.3605 49.147 79.3605 49.8665C79.3605 50.5943 79.7891 51.2416 80.5462 51.2416C81.3061 51.2416 81.7236 50.5943 81.7236 49.8665Z" fill="#C59B6D"/>
<path d="M83.1987 48.0942H83.7498V49.5721H85.6064V48.0942H86.1603V51.6444H85.6064V50.0555H83.7498V51.6444H83.1987V48.0942Z" fill="#C59B6D"/>
<path d="M87.5214 49.8443L87.7497 48.0942H90.2241V51.1611H90.6361V52.55H90.085V51.6444H87.3962V52.55H86.8423V51.1888C87.1735 51.1305 87.3795 50.8972 87.5214 49.8443ZM87.5576 51.1611H89.673V48.5804H88.234L88.0726 49.911C87.9835 50.5805 87.8137 50.9555 87.5576 51.1611Z" fill="#C59B6D"/>
<path d="M44.6431 50.3082H58.9582V39.8799H44.6431V50.3082ZM45.6563 40.891H57.945V49.297H45.6563V40.891ZM57.1323 28.2959H46.4718V36.4547H57.1323V28.2959ZM56.1191 35.4408H47.485V29.3071H56.1191V35.4408ZM46.4718 24.868H57.1323V16.7092H46.4718V24.868ZM47.485 17.7204H56.1191V23.8568H47.485V17.7204ZM50.0652 11.3312H53.5361V7.86708H50.0652V11.3312ZM51.0784 8.87824H52.5229V10.32H51.0784V8.87824ZM5.9398 50.3082H20.2549V39.8799H5.9398V50.3082ZM6.95296 40.891H19.2417V49.297H6.95296V40.891ZM18.4262 28.2959H7.76571V36.4547H18.4262V28.2959ZM17.413 35.4408H8.77888V29.3071H17.413V35.4408ZM7.76571 24.868H18.4262V16.7092H7.76571V24.868ZM8.77888 17.7204H17.413V23.8568H8.77888V17.7204ZM11.3619 11.3312H14.8328V7.86708H11.3619V11.3312ZM12.375 8.87824H13.8196V10.32H12.375V8.87824ZM33.8296 11.9729H31.0712V14.7258H33.8296V11.9729ZM32.8164 13.7146H32.0844V12.984H32.8164V13.7146ZM35.8921 24.5707V17.7009H29.0087V24.5707H29.5236L26.8154 26.9653V28.2015H28.1319V35.6658H27.4249V37.3686L31.7364 39.9049H33.1699L37.4814 37.3686V35.6658H36.7744V28.2015H38.091V26.9653L35.3827 24.5707H35.8921ZM30.0219 18.7121H34.8789V23.5596H30.0219V18.7121ZM36.4627 36.788L32.8888 38.8909H32.0092L28.4353 36.788V36.6742H36.4627V36.788ZM29.1423 35.6658V28.2015H35.7557V35.6658H29.1423ZM36.8106 27.1903H28.0874L31.0489 24.5707H33.8463L36.8106 27.1903ZM61.7165 8.27821H57.7808L52.3086 1.86399V0.505582C52.3086 0.225012 52.0832 0 51.802 0C51.5209 0 51.2955 0.225012 51.2955 0.505582V1.86399L45.8233 8.27821H33.4649L32.9584 7.5504V5.15305C32.9584 4.87248 32.7329 4.64747 32.4518 4.64747C32.1707 4.64747 31.9452 4.87248 31.9452 5.15305V7.5504L31.4386 8.27821H19.0803L13.6025 1.86399V0.505582C13.6025 0.225012 13.3771 0 13.0959 0C12.8148 0 12.5894 0.225012 12.5894 0.505582V1.86399L7.11718 8.27821H3.18144L0 13.7146V52.9972H64.898V13.7146L61.7165 8.27821ZM1.92334 51.9861H1.01316V16.7787H1.92334V51.9861ZM1.92334 15.7675H1.01316V13.9896L3.76317 9.29216H6.25711L1.92334 14.3674V15.7675ZM23.2554 51.9861H2.9365V14.7397L13.0959 2.8307L23.2554 14.7397V51.9861ZM24.9199 51.9861H24.2713V12.109C24.2713 11.8173 24.4996 11.784 24.597 11.784C24.6944 11.784 24.9227 11.8145 24.9227 12.109V51.9861H24.9199ZM24.5942 10.7728C23.8316 10.7728 23.2554 11.3478 23.2554 12.109V13.1812L19.9376 9.29216H30.7316L26.5676 15.273H25.9302V12.1062C25.933 11.3478 25.3569 10.7728 24.5942 10.7728ZM35.867 51.9861H29.031V51.2471H35.8698V51.9861H35.867ZM29.9578 50.236V43.1495L32.449 42.1606L34.9401 43.1495V50.236H29.9578ZM38.9677 51.9861H36.883V50.236H35.9561V42.4633L32.449 41.0716L28.9447 42.4633V50.236H28.0178V51.9861H25.933V16.287H27.0993L32.449 8.59767L37.7987 16.287H38.9677V51.9861ZM40.6294 51.9861H39.9809V12.109C39.9809 11.8173 40.2091 11.784 40.3066 11.784C40.404 11.784 40.6322 11.8145 40.6322 12.109V51.9861H40.6294ZM40.3038 10.7728C39.5411 10.7728 38.965 11.3478 38.965 12.109V15.2758H38.3276L34.1636 9.29216H44.9576L41.6398 13.1812V12.109C41.6426 11.3478 41.0664 10.7728 40.3038 10.7728ZM61.9615 51.9861H41.6426V14.7397L51.802 2.8307L61.9615 14.7397V51.9861ZM63.8848 51.9861H62.9747V16.7787H63.8848V51.9861ZM63.8848 15.7675H62.9747V14.3674L58.6437 9.28938H61.1376L63.8876 13.9868V15.7675H63.8848Z" fill="#C59B6D"/>
</svg>
